# xmcd
#
# Track frame offsets: 
#        182
#        11407
#        26257
#        41732
#        61220
#        73195
#        83745
#        95675
#        108057
#        122145
#        134345
#        149082
#
# Disc length: 2266 seconds
#
# Revision: 6
# Processed by: cddbd v1.5.2PL0 Copyright (c) Steve Scherf et al.
# Submitted via: ExactAudioCopy v1.0b1
#
DISCID=a308d80c
DTITLE=John Mayall - John Mayall Plays John Mayall
DYEAR=1965
DGENRE=Blues
TTITLE0=Crawling Up A Hill (Version 2)
TTITLE1=I Wanna Teach You Everything
TTITLE2=When I'm Gone
TTITLE3=I Need Your Love
TTITLE4=The Hoot Owl
TTITLE5=R. and B. Time: (A) Night Train (B) Lucille
TTITLE6=Crocodile Walk (Version 1)
TTITLE7=What's The Matter With You
TTITLE8=Doreen
TTITLE9=Runaway
TTITLE10=Heartache
TTITLE11=Chicago Line
EXTD=
EXTT0=
EXTT1=
EXTT2=
EXTT3=
EXTT4=
EXTT5=
EXTT6=
EXTT7=
EXTT8=
EXTT9=
EXTT10=
EXTT11=
PLAYORDER=
